<?xml version='1.0' encoding='ascii'?>
<svg xmlns="http://www.w3.org/2000/svg" height="200" version="1.1" width="200">
    <g id="View Layer_LineSet" inkscape:groupmode="lineset" inkscape:label="View Layer_LineSet" xmlns:inkscape="http://www.inkscape.org/namespaces/inkscape">
        <style>
            #strokes > * {
                fill: black;
            }
        </style>
        <g id="strokes" inkscape:groupmode="layer" inkscape:label="strokes" xmlns:inkscape="http://www.inkscape.org/namespaces/inkscape">
            <path d=" M 81.543, 36.539 71.543, 36.539 70.292, 36.539 70.292, 46.539 70.292, 47.790 70.292, 57.790 70.292, 59.041 70.292, 69.041 70.292, 70.292 60.292, 70.292 59.041, 70.292 49.041, 70.292 47.790, 70.292 37.790, 70.292 36.539, 70.292 36.539, 80.292 36.539, 81.543 46.539, 81.543 47.790, 81.543 57.790, 81.543 59.041, 81.543 69.041, 81.543 70.292, 81.543 80.292, 81.543 81.543, 81.543 81.543, 71.543 81.543, 70.292 81.543, 60.292 81.543, 59.041 81.543, 49.041 81.543, 47.790 81.543, 37.790 81.543, 36.539 " fill="none" stroke="rgb(0, 0, 0)" stroke-linecap="butt" stroke-linejoin="round" stroke-opacity="1.0" stroke-width="3.0" />
            <path d=" M 118.457, 36.539 118.457, 46.539 118.457, 47.790 118.457, 57.790 118.457, 59.041 118.457, 69.041 118.457, 70.292 118.457, 80.292 118.457, 81.543 128.457, 81.543 129.708, 81.543 139.708, 81.543 140.959, 81.543 150.959, 81.543 152.210, 81.543 162.210, 81.543 163.461, 81.543 163.461, 71.543 163.461, 70.292 153.461, 70.292 152.210, 70.292 142.210, 70.292 140.959, 70.292 130.959, 70.292 129.708, 70.292 129.708, 60.292 129.708, 59.041 129.708, 49.041 129.708, 47.790 129.708, 37.790 129.708, 36.539 119.708, 36.539 118.457, 36.539 " fill="none" stroke="rgb(0, 0, 0)" stroke-linecap="butt" stroke-linejoin="round" stroke-opacity="1.0" stroke-width="3.0" />
            <path d=" M 81.543, 163.461 81.543, 153.461 81.543, 152.210 81.543, 142.210 81.543, 140.959 81.543, 130.959 81.543, 129.708 81.543, 119.708 81.543, 118.457 71.543, 118.457 70.292, 118.457 60.292, 118.457 59.041, 118.457 49.041, 118.457 47.790, 118.457 37.790, 118.457 36.539, 118.457 36.539, 128.457 36.539, 129.708 46.539, 129.708 47.790, 129.708 57.790, 129.708 59.041, 129.708 69.041, 129.708 70.292, 129.708 70.292, 139.708 70.292, 140.959 70.292, 150.959 70.292, 152.210 70.292, 162.210 70.292, 163.461 80.292, 163.461 81.543, 163.461 " fill="none" stroke="rgb(0, 0, 0)" stroke-linecap="butt" stroke-linejoin="round" stroke-opacity="1.0" stroke-width="3.0" />
            <path d=" M 118.457, 163.461 128.457, 163.461 129.708, 163.461 129.708, 153.461 129.708, 152.210 129.708, 142.210 129.708, 140.959 129.708, 130.959 129.708, 129.708 139.708, 129.708 140.959, 129.708 150.959, 129.708 152.210, 129.708 162.210, 129.708 163.461, 129.708 163.461, 119.708 163.461, 118.457 153.461, 118.457 152.210, 118.457 142.210, 118.457 140.959, 118.457 130.959, 118.457 129.708, 118.457 119.708, 118.457 118.457, 118.457 118.457, 128.457 118.457, 129.708 118.457, 139.708 118.457, 140.959 118.457, 150.959 118.457, 152.210 118.457, 162.210 118.457, 163.461 " fill="none" stroke="rgb(0, 0, 0)" stroke-linecap="butt" stroke-linejoin="round" stroke-opacity="1.0" stroke-width="3.0" />
        </g>
    </g>
</svg>
