<?xml version='1.0' encoding='ascii'?>
<svg xmlns="http://www.w3.org/2000/svg" height="200" version="1.1" width="200">
    <g id="View Layer_LineSet" inkscape:groupmode="lineset" inkscape:label="View Layer_LineSet" xmlns:inkscape="http://www.inkscape.org/namespaces/inkscape">
        <style>
            #strokes > * {
                fill: black;
            }
        </style>
        <g id="strokes" inkscape:groupmode="layer" inkscape:label="strokes" xmlns:inkscape="http://www.inkscape.org/namespaces/inkscape">
            <path d=" M 26.048, 71.052 36.048, 71.052 37.299, 71.052 37.299, 61.052 37.299, 59.801 37.299, 49.801 37.299, 48.550 37.299, 38.550 37.299, 37.299 47.299, 37.299 48.550, 37.299 58.550, 37.299 59.801, 37.299 69.801, 37.299 71.052, 37.299 71.052, 27.299 71.052, 26.048 61.052, 26.048 59.801, 26.048 49.801, 26.048 48.550, 26.048 38.550, 26.048 37.299, 26.048 27.299, 26.048 26.048, 26.048 26.048, 36.048 26.048, 37.299 26.048, 47.299 26.048, 48.550 26.048, 58.550 26.048, 59.801 26.048, 69.801 26.048, 71.052 " fill="none" stroke="rgb(0, 0, 0)" stroke-linecap="butt" stroke-linejoin="round" stroke-opacity="1.0" stroke-width="3.0" />
            <path d=" M 173.952, 71.052 173.952, 61.052 173.952, 59.801 173.952, 49.801 173.952, 48.550 173.952, 38.550 173.952, 37.299 173.952, 27.299 173.952, 26.048 163.952, 26.048 162.701, 26.048 152.701, 26.048 151.450, 26.048 141.450, 26.048 140.199, 26.048 130.199, 26.048 128.948, 26.048 128.948, 36.048 128.948, 37.299 138.948, 37.299 140.199, 37.299 150.199, 37.299 151.450, 37.299 161.450, 37.299 162.701, 37.299 162.701, 47.299 162.701, 48.550 162.701, 58.550 162.701, 59.801 162.701, 69.801 162.701, 71.052 172.701, 71.052 173.952, 71.052 " fill="none" stroke="rgb(0, 0, 0)" stroke-linecap="butt" stroke-linejoin="round" stroke-opacity="1.0" stroke-width="3.0" />
            <path d=" M 26.048, 128.948 26.048, 138.948 26.048, 140.199 26.048, 150.199 26.048, 151.450 26.048, 161.450 26.048, 162.701 26.048, 172.701 26.048, 173.952 36.048, 173.952 37.299, 173.952 47.299, 173.952 48.550, 173.952 58.550, 173.952 59.801, 173.952 69.801, 173.952 71.052, 173.952 71.052, 163.952 71.052, 162.701 61.052, 162.701 59.801, 162.701 49.801, 162.701 48.550, 162.701 38.550, 162.701 37.299, 162.701 37.299, 152.701 37.299, 151.450 37.299, 141.450 37.299, 140.199 37.299, 130.199 37.299, 128.948 27.299, 128.948 26.048, 128.948 " fill="none" stroke="rgb(0, 0, 0)" stroke-linecap="butt" stroke-linejoin="round" stroke-opacity="1.0" stroke-width="3.0" />
            <path d=" M 173.952, 128.948 163.952, 128.948 162.701, 128.948 162.701, 138.948 162.701, 140.199 162.701, 150.199 162.701, 151.450 162.701, 161.450 162.701, 162.701 152.701, 162.701 151.450, 162.701 141.450, 162.701 140.199, 162.701 130.199, 162.701 128.948, 162.701 128.948, 172.701 128.948, 173.952 138.948, 173.952 140.199, 173.952 150.199, 173.952 151.450, 173.952 161.450, 173.952 162.701, 173.952 172.701, 173.952 173.952, 173.952 173.952, 163.952 173.952, 162.701 173.952, 152.701 173.952, 151.450 173.952, 141.450 173.952, 140.199 173.952, 130.199 173.952, 128.948 " fill="none" stroke="rgb(0, 0, 0)" stroke-linecap="butt" stroke-linejoin="round" stroke-opacity="1.0" stroke-width="3.0" />
        </g>
    </g>
</svg>
